<svg xmlns="http://www.w3.org/2000/svg" xmlns:xlink="http://www.w3.org/1999/xlink" width="890" height="541" viewBox="0 0 890 541">
  <g fill="#FFF" opacity=".3" transform="rotate(-30.897 489.6259 -1430.4263)">
    <use xlink:href="#path0_fill"/>
    <use xlink:href="#path1_fill"/>
  </g>
  <g fill="#FFF" opacity=".15" transform="rotate(-114.633 527.4658 -122.831)">
    <use xlink:href="#path2_fill"/>
    <use xlink:href="#path3_fill"/>
    <use xlink:href="#path4_fill"/>
    <use xlink:href="#path5_fill"/>
  </g>
  <use fill="#FFF" opacity=".3" transform="rotate(-26.807 599.2003 -50.124)" xlink:href="#path6_fill"/>
  <use fill="#FFF" filter="url(#filter0_f)" opacity=".3" transform="rotate(-16.583 1551.79 131.545)" xlink:href="#path7_fill"/>
  <g fill="#FFF" opacity=".2" transform="rotate(-32.15 749.785 -253.7589)">
    <use xlink:href="#path8_fill"/>
    <use xlink:href="#path9_fill"/>
    <use xlink:href="#path10_fill"/>
  </g>
  <use fill="#FFF" opacity=".2" transform="rotate(-35.764 204.1143 -290.0328)" xlink:href="#path11_fill"/>
  <use fill="#FFF" filter="url(#filter1_f)" opacity=".3" transform="rotate(-35.764 71.9508 24.9257)" xlink:href="#path12_fill"/>
  <g fill="#FFF" opacity=".2" transform="rotate(-28.494 714.2598 -1434.754)">
    <use xlink:href="#path13_fill"/>
    <use xlink:href="#path14_fill"/>
    <use xlink:href="#path15_fill"/>
    <use xlink:href="#path16_fill"/>
    <use xlink:href="#path17_fill"/>
    <use xlink:href="#path18_fill"/>
  </g>
  <defs>
    <filter id="filter0_f" width="115" height="120" x="-481" y="1094" color-interpolation-filters="sRGB" filterUnits="userSpaceOnUse">
      <feFlood flood-opacity="0" result="BackgroundImageFix"/>
      <feBlend in="SourceGraphic" in2="BackgroundImageFix" result="shape"/>
      <feGaussianBlur result="effect1_foregroundBlur" stdDeviation="5"/>
    </filter>
    <filter id="filter1_f" width="93" height="92" x="-513" y="672" color-interpolation-filters="sRGB" filterUnits="userSpaceOnUse">
      <feFlood flood-opacity="0" result="BackgroundImageFix"/>
      <feBlend in="SourceGraphic" in2="BackgroundImageFix" result="shape"/>
      <feGaussianBlur result="effect1_foregroundBlur" stdDeviation="4"/>
    </filter>
    <path id="path0_fill" d="M3.2 6.353H0v12.7058h3.2V6.3529z"/>
    <path id="path1_fill" d="M28.8 0v1.9011l-24 5.2952v16.6272c0 .729.4992 1.3627 1.2128 1.5422l6.4 1.5882c.128.0302.2592.0461.3872.0461.4976 0 .9728-.2303 1.28-.6353l3.952-5.2301L28.8 23.5075v1.9043H32V0h-3.2zM12.1568 23.6155L8 22.5831v-3.664l6.6032 1.458-2.4464 3.2384z"/>
    <path id="path2_fill" d="M3.7241 29.791V0H0v33.5151h33.5169V29.791H3.7241z"/>
    <path id="path3_fill" d="M27.9308 20.4807H5.5862v7.4482h22.3446v-7.4482z"/>
    <path id="path4_fill" d="M16.7585 11.1705H5.5862v7.4482h11.1723v-7.4482z"/>
    <path id="path5_fill" d="M20.4826 1.862H5.5862v7.4464h14.8964V1.862z"/>
    <path id="path6_fill" d="M23.0476 0C11.4945 0 2.0952 8.5226 2.0952 19c0 3.6628 1.1336 7.1609 3.2938 10.2093L0 38h23.0476C34.6008 38 44 29.4774 44 19S34.6008 0 23.0476 0zm-8.3809 21.1111c-1.1587 0-2.0953-.9437-2.0953-2.1111s.9366-2.1111 2.0953-2.1111c1.1586 0 2.0952.9437 2.0952 2.1111s-.9366 2.1111-2.0952 2.1111zm8.3809 0c-1.1586 0-2.0952-.9437-2.0952-2.1111s.9366-2.1111 2.0952-2.1111c1.1587 0 2.0953.9437 2.0953 2.1111s-.9366 2.1111-2.0953 2.1111zm8.381 0c-1.1587 0-2.0953-.9437-2.0953-2.1111s.9366-2.1111 2.0953-2.1111c1.1586 0 2.0952.9437 2.0952 2.1111s-.9366 2.1111-2.0952 2.1111z"/>
    <path id="path7_fill" d="M52.0451 0C25.9563 0 4.7314 19.2453 4.7314 42.905c0 8.2711 2.5597 16.1704 7.4377 23.0543L0 85.81h52.0451c26.0889 0 47.3138-19.2453 47.3138-42.905S78.134 0 52.0451 0zM33.1196 47.6722c-2.6164 0-4.7313-2.1309-4.7313-4.7672s2.1149-4.7672 4.7313-4.7672c2.6165 0 4.7314 2.1309 4.7314 4.7672s-2.1149 4.7672-4.7314 4.7672zm18.9255 0c-2.6164 0-4.7313-2.1309-4.7313-4.7672s2.1149-4.7672 4.7313-4.7672c2.6165 0 4.7314 2.1309 4.7314 4.7672s-2.1149 4.7672-4.7314 4.7672zm18.9256 0c-2.6165 0-4.7314-2.1309-4.7314-4.7672s2.1149-4.7672 4.7314-4.7672c2.6164 0 4.7313 2.1309 4.7313 4.7672s-2.1149 4.7672-4.7313 4.7672z"/>
    <path id="path8_fill" d="M17.2634 22.8941c4.7583 0 8.6317-3.8381 8.6317-8.5529 0-4.7149-3.8734-8.553-8.6317-8.553-4.7582 0-8.6317 3.8381-8.6317 8.553 0 4.7148 3.8735 8.5529 8.6317 8.5529z"/>
    <path id="path9_fill" d="M17.2634 25.0323C7.0974 25.0323 0 30.3074 0 37.8618V40h34.5268v-2.1382c0-7.5544-7.0974-12.8295-17.2634-12.8295z"/>
    <path id="path10_fill" d="M36.6847 15.2264l-7.9994-7.9265 3.0534-3.0234 4.946 4.903L45.9487 0 49 3.0235 36.6847 15.2264z"/>
    <path id="path11_fill" d="M27.9308 0c-3.4247 0-6.5959 1.8018-8.5941 4.4777C17.3386 1.8018 14.1674 0 10.7426 0 4.8191 0 0 4.8285 0 10.7636c0 11.8206 17.4546 22.8877 18.2002 23.3527a2.146 2.146 0 0 0 1.1365.3272c.3932 0 .7885-.1097 1.1366-.3272.7455-.465 18.2001-11.5321 18.2001-23.3527C38.6734 4.8286 33.8543 0 27.9308 0z"/>
    <path id="path12_fill" d="M59.009 0c-7.2354 0-13.9352 3.8067-18.1566 9.4599C36.631 3.8067 29.9312 0 22.6958 0 10.1813 0 0 10.2012 0 22.7401 0 47.7133 36.8761 71.0947 38.4512 72.077c.7353.4594 1.5705.6913 2.4012.6913.8307 0 1.6659-.2319 2.4012-.6913 1.5751-.9823 38.4512-24.3637 38.4512-49.3369C81.7048 10.2012 71.5235 0 59.009 0z"/>
    <path id="path13_fill" d="M7.3198 20.1295c0-1.2846.2324-2.5125.6405-3.6599H6.1011C2.732 16.4696 0 18.5906 0 21.9595v3.6599h7.3198v-5.4899z"/>
    <path id="path14_fill" d="M13.8926 10.0812c0-.0054.0019-.0109.0019-.0164 0-2.5272-2.0496-4.575-4.5768-4.575-2.5253 0-4.573 2.0478-4.573 4.575 0 2.3625 1.7952 4.2821 4.09 4.5273 1.1674-1.9873 2.9352-3.5757 5.0579-4.5109z"/>
    <path id="path15_fill" d="M34.9372 5.4899c-2.5254 0-4.5731 2.0477-4.5731 4.5749 0 .064.0165.1244.0183.1885a11.0184 11.0184 0 0 1 4.7213 4.3717c2.4485-.0896 4.4102-2.0898 4.4102-4.5584 0-2.529-2.0496-4.5767-4.5767-4.5767z"/>
    <path id="path16_fill" d="M37.8186 16.4696h-1.8592c.4081 1.1474.6405 2.3753.6405 3.6599v5.4899h7.3198v-3.6599c0-3.3689-2.7321-5.4899-6.1011-5.4899z"/>
    <path id="path17_fill" d="M10.9798 27.4494h21.9595v-7.3198c0-3.5062-2.4687-6.4287-5.7589-7.1442-1.4841 1.0358-3.2793 1.6543-5.2209 1.6543-1.9416 0-3.7386-.6185-5.2209-1.6543-3.2902.7155-5.7588 3.638-5.7588 7.1442v7.3198z"/>
    <path id="path18_fill" d="M21.9595 10.9798c3.032 0 5.4899-2.458 5.4899-5.49C27.4494 2.458 24.9915 0 21.9595 0c-3.032 0-5.4899 2.4579-5.4899 5.4899 0 3.032 2.4579 5.4899 5.4899 5.4899z"/>
  </defs>
</svg>
