<svg xmlns="http://www.w3.org/2000/svg" width="253" height="157" viewBox="0 0 253 157"><g transform="translate(-1082 -740.008)"><line y2="92" transform="translate(1087.5 804.508)" fill="none" stroke="#09be8b" stroke-width="1.5"></line><line y2="134.008" transform="translate(1101.5 762.5)" fill="none" stroke="#09be8b" stroke-width="1.5"></line><line y2="67" transform="translate(1128 786.939)" fill="none" stroke="#09be8b" stroke-width="1.5"></line><line y2="40" transform="translate(1115 820.594)" fill="none" stroke="#b73f43" stroke-width="1.5"></line><line y2="52" transform="translate(1173.342 821.359)" fill="none" stroke="#b73f43" stroke-width="2"></line><line y2="40" transform="translate(1200.957 830.414)" fill="none" stroke="#b73f43" stroke-width="1.5"></line><line y2="40" transform="translate(1243 819.008)" fill="none" stroke="#b73f43" stroke-width="1.5"></line><line y2="24" transform="translate(1286 832.008)" fill="none" stroke="#b73f43" stroke-width="1.5"></line><line y2="29" transform="translate(1215 836.008)" fill="none" stroke="#b73f43" stroke-width="1.5"></line><line y2="107" transform="translate(1229.634 781.508)" fill="none" stroke="#09be8b" stroke-width="1.5"></line><line y2="108" transform="translate(1257.249 765.803)" fill="none" stroke="#09be8b" stroke-width="1.5"></line><line y2="112" transform="translate(1272.119 746.5)" fill="none" stroke="#09be8b" stroke-width="1.5"></line><line y2="29" transform="translate(1302.545 817.716)" fill="none" stroke="#09be8b" stroke-width="1.5"></line><line y2="134.008" transform="translate(1315.545 762.5)" fill="none" stroke="#b73f43" stroke-width="1.5"></line><line y2="137" transform="translate(1330 740.008)" fill="none" stroke="#09be8b" stroke-width="1.5"></line><line y2="22" transform="translate(1187.149 837.69)" fill="none" stroke="#b73f43" stroke-width="2"></line><line y2="40" transform="translate(1159.534 832.605)" fill="none" stroke="#b73f43" stroke-width="1.5"></line><line y2="21" transform="translate(1144 847.008)" fill="none" stroke="#b73f43" stroke-width="1.5"></line><rect width="11" height="53" transform="translate(1082 821.008)" fill="#09be8b"></rect><rect width="10" height="78" transform="translate(1096 777.008)" fill="#09be8b"></rect><rect width="10" height="29" transform="translate(1110 832.008)" fill="#fb4e4e"></rect><rect width="10" height="27" transform="translate(1139 834.008)" fill="#fb4e4e"></rect><rect width="10" height="27" transform="translate(1168 832.008)" fill="#fb4e4e"></rect><rect width="10" height="19" transform="translate(1195 845.008)" fill="#fb4e4e"></rect><rect width="10" height="14" transform="translate(1210 842.008)" fill="#fb4e4e"></rect><rect width="10" height="40" transform="translate(1238 827.008)" fill="#fb4e4e"></rect><rect width="10" height="27" transform="translate(1281 822.008)" fill="#fb4e4e"></rect><rect width="10" height="27" transform="translate(1182 825.008)" fill="#fb4e4e"></rect><rect width="10" height="51" transform="translate(1155 846.008)" fill="#fb4e4e"></rect><rect width="10" height="52" transform="translate(1126 801.008)" fill="#09be8b"></rect><rect width="10" height="52" transform="translate(1225 808.008)" fill="#09be8b"></rect><rect width="10" height="51" transform="translate(1253 787.008)" fill="#09be8b"></rect><rect width="10" height="73" transform="translate(1267 763.008)" fill="#09be8b"></rect><rect width="10" height="76" transform="translate(1311 777.008)" fill="#fb4e4e"></rect><rect width="10" height="76" transform="translate(1325 749.008)" fill="#09be8b"></rect><rect width="10" height="126" transform="translate(1325 749.008)" fill="#09be8b"></rect><rect width="10" height="14" transform="translate(1298 824.008)" fill="#09be8b"></rect></g></svg>