<svg xmlns="http://www.w3.org/2000/svg" width="260" height="223" viewBox="0 0 260 223"><g transform="translate(-1359 -316)"><rect width="43" height="43" transform="translate(1359 316)" fill="#fdbf04"></rect><rect width="43" height="43" transform="translate(1359 405)" fill="#0daf9f"></rect><g transform="translate(1372.403 413.313)"><path d="M125.343,0l-.177.6V18.039l.177.176,8.095-4.785Z" transform="translate(-117.248)" fill="#343434"></path><path d="M8.095,0,0,13.431l8.095,4.785V0Z" fill="#8c8c8c"></path><path d="M126.486,241.369l-.1.121V247.7l.1.291,8.1-11.407Z" transform="translate(-118.391 -221.621)" fill="#3c3c3b"></path><path d="M8.095,247.992v-6.624L0,236.585Z" transform="translate(0 -221.619)" fill="#8c8c8c"></path><path d="M127.961,162.623l8.095-4.785-8.095-3.679Z" transform="translate(-119.866 -144.407)" fill="#141414"></path><path d="M0,157.838,8.1,162.623v-8.464Z" transform="translate(-0.001 -144.407)" fill="#393939"></path></g><g transform="translate(1360.555 320.412)"><g transform="translate(11.848 5.89)"><path d="M25.046,16.256a3.2,3.2,0,0,0,1.773-3.474c-.236-2.446-2.35-3.266-5.018-3.5V5.89H19.733v3.3c-.544,0-1.1.011-1.65.022V5.89H16.016V9.282c-.448.009-.887.018-1.316.018V9.29H11.848v2.205s1.527-.029,1.5,0a1.067,1.067,0,0,1,1.189.905v9.294a.73.73,0,0,1-.777.684c.027.023-1.5,0-1.5,0l-.41,2.466h2.69c.5,0,.994.008,1.477.012l0,3.431h2.065v-3.4c.568.012,1.117.017,1.652.016v3.379H21.8V24.861c3.475-.2,5.908-1.074,6.21-4.335C28.255,17.9,27.019,16.729,25.046,16.256Zm-6.914-4.614c1.166,0,4.833-.371,4.833,2.063,0,2.333-3.666,2.06-4.833,2.06Zm0,10.75V17.847c1.4,0,5.795-.4,5.8,2.272C23.928,22.684,19.533,22.392,18.131,22.393Z" transform="translate(-11.848 -5.89)" fill="#343434"></path></g></g><text transform="translate(1416 332)" fill="#cdcfd4" font-size="16" font-family="Montserrat-SemiBold, Montserrat" font-weight="600"><tspan x="0" y="0">Bitcoin</tspan></text><text transform="translate(1416 421)" fill="#cdcfd4" font-size="16" font-family="Montserrat-SemiBold, Montserrat" font-weight="600"><tspan x="0" y="0">Ethurium</tspan></text><text transform="translate(1416 510)" fill="#cdcfd4" font-size="16" font-family="Montserrat-SemiBold, Montserrat" font-weight="600"><tspan x="0" y="0">BNB</tspan></text><text transform="translate(1531 332)" fill="#cdcfd4" font-size="16" font-family="Montserrat-SemiBold, Montserrat" font-weight="600"><tspan x="0" y="0">$40,088.10</tspan></text><text transform="translate(1544 421)" fill="#cdcfd4" font-size="16" font-family="Montserrat-SemiBold, Montserrat" font-weight="600"><tspan x="0" y="0">$25,78.10</tspan></text><text transform="translate(1558 510)" fill="#cdcfd4" font-size="16" font-family="Montserrat-SemiBold, Montserrat" font-weight="600"><tspan x="0" y="0">$15,236</tspan></text><text transform="translate(1416 354)" fill="#a2a2a2" font-size="15" font-family="Montserrat-SemiBold, Montserrat" font-weight="600"><tspan x="0" y="0">BTC</tspan></text><text transform="translate(1416 443)" fill="#a2a2a2" font-size="15" font-family="Montserrat-SemiBold, Montserrat" font-weight="600"><tspan x="0" y="0">ETH</tspan></text><text transform="translate(1416 532)" fill="#a2a2a2" font-size="15" font-family="Montserrat-SemiBold, Montserrat" font-weight="600"><tspan x="0" y="0">BNB</tspan></text><text transform="translate(1567 354)" fill="#00c288" font-size="15" font-family="Montserrat-SemiBold, Montserrat" font-weight="600"><tspan x="0" y="0">+5.21%</tspan></text><text transform="translate(1567 443)" fill="#fb4e4e" font-size="15" font-family="Montserrat-SemiBold, Montserrat" font-weight="600"><tspan x="0" y="0">-3.09%</tspan></text><text transform="translate(1567 532)" fill="#00c288" font-size="15" font-family="Montserrat-SemiBold, Montserrat" font-weight="600"><tspan x="0" y="0">+5.21%</tspan></text><rect width="43" height="43" transform="translate(1359 496)" fill="#3f81fd"></rect><g transform="translate(1369.307 506)"><path d="M6.846,9.407l4.348-4.348,4.35,4.349,2.53-2.53L11.193,0,4.316,6.877l2.53,2.53M0,11.193l2.53-2.53,2.53,2.53-2.53,2.53ZM6.846,12.98l4.348,4.347,4.35-4.349,2.531,2.528h0l-6.879,6.879L4.316,15.509l0,0,2.533-2.526m10.481-1.785,2.53-2.53,2.53,2.53-2.53,2.53Z" fill="#141414"></path><path d="M968.324,965.757h0l-2.567-2.567-1.9,1.9h0l-.218.218-.45.45,0,0,0,0,2.565,2.565,2.567-2.567h0" transform="translate(-954.565 -954.565)" fill="#141414"></path></g></g></svg>