<svg xmlns="http://www.w3.org/2000/svg" width="44" height="44" viewBox="0 0 44 44">
    <g fill="none" fill-rule="evenodd">
        <rect width="44" height="44" fill="#7E7BDD" opacity=".1" rx="4"/>
        <g stroke="#928FFF" stroke-linecap="round" stroke-width="2">
            <path stroke-linejoin="round" d="M31 30c0 1.1-.9 2-2 2H15c-1.1 0-2-.9-2-2V20c0-1.1.9-2 2-2h14c1.1 0 2 .9 2 2v10z"/>
            <path d="M23 23a1 1 0 1 1-1.998.002A1 1 0 0 1 23 23zM22 24v3"/>
            <path stroke-linejoin="round" d="M27 15v2.594M17 17.857V15M17 15a5.001 5.001 0 0 1 10 0"/>
        </g>
    </g>
</svg>
