<svg xmlns="http://www.w3.org/2000/svg" xmlns:xlink="http://www.w3.org/1999/xlink" width="50" height="36"><defs><rect id="a" width="50" height="35.714" rx="2"/><circle id="c" cx="8.333" cy="8.333" r="8.333"/></defs><g fill="none" fill-rule="evenodd"><mask id="b" fill="#fff"><use xlink:href="#a"/></mask><rect width="49.5" height="35.214" x=".25" y=".25" stroke="#F5F5F5" stroke-width=".5" rx="2"/><g mask="url(#b)"><g transform="translate(16.667 9.524)"><mask id="d" fill="#fff"><use xlink:href="#c"/></mask><use fill="#E01B41" xlink:href="#c"/><path fill="#0E4B9C" d="M0 9.524c2.381 2.232 5.952 3.571 8.333 0 2.381-3.572 7.143-3.572 8.334 0 1.19 3.571 0 7.143 0 7.143H0s-2.381-9.375 0-7.143z" mask="url(#d)"/></g></g><path fill="#262626" d="M33.687 9.094a.334.334 0 0 1 .124-.448l1.488-.86a.33.33 0 0 1 .45.117l3.246 5.622c.09.156.027.36-.124.448l-1.489.86a.33.33 0 0 1-.45-.117l-3.245-5.622zm3.093-1.786a.334.334 0 0 1 .124-.447L38.392 6a.33.33 0 0 1 .45.116l3.246 5.623c.09.155.027.36-.124.447l-1.489.86a.33.33 0 0 1-.45-.117L36.78 7.308zM7.912 23.975a.334.334 0 0 1 .124-.448l1.489-.86a.33.33 0 0 1 .45.117l3.245 5.622c.09.156.028.36-.124.448l-1.488.86a.33.33 0 0 1-.45-.117l-3.246-5.622zm3.093-1.786a.334.334 0 0 1 .124-.447l1.489-.86a.33.33 0 0 1 .45.116l3.245 5.623c.09.155.028.36-.124.447l-1.488.86a.33.33 0 0 1-.45-.117l-3.246-5.622zm25.928-1.19a.334.334 0 0 1 .45-.117l1.488.86a.33.33 0 0 1 .124.447l-3.246 5.622a.334.334 0 0 1-.45.116l-1.488-.859a.33.33 0 0 1-.124-.447l3.246-5.623zm3.093 1.785a.334.334 0 0 1 .45-.116l1.488.86a.33.33 0 0 1 .124.447l-3.246 5.622a.334.334 0 0 1-.45.116l-1.488-.86a.33.33 0 0 1-.124-.447l3.246-5.622zM11.158 6.117a.334.334 0 0 1 .45-.116l1.488.86a.33.33 0 0 1 .124.447L9.974 12.93a.334.334 0 0 1-.45.116l-1.488-.859a.33.33 0 0 1-.124-.447l3.246-5.623zm3.093 1.786a.334.334 0 0 1 .45-.116l1.488.86a.33.33 0 0 1 .124.447l-3.246 5.622a.334.334 0 0 1-.45.116l-1.488-.86a.33.33 0 0 1-.124-.447l3.246-5.622z" mask="url(#b)" opacity=".75"/></g></svg>