<svg xmlns="http://www.w3.org/2000/svg" width="30" height="30" viewBox="0 0 30 30">
    <g fill="none" fill-rule="evenodd">
        <path fill="#211E3E" d="M0 15C0 6.716 6.716 0 15 0c8.284 0 15 6.716 15 15 0 8.284-6.716 15-15 15-8.284 0-15-6.716-15-15z"/>
        <path fill="#FFF" d="M10.6 12.424v10.213H7.201V12.424h3.4zm.224-3.16c0 .98-.738 1.766-1.923 1.766h-.022C7.738 11.03 7 10.245 7 9.264 7 8.263 7.76 7.5 8.923 7.5s1.88.763 1.901 1.764zm12.036 7.517v5.856h-3.4v-5.464c0-1.373-.492-2.31-1.722-2.31-.94 0-1.499.632-1.744 1.242-.09.219-.112.523-.112.828v5.704h-3.4s.045-9.255 0-10.213h3.4v1.447c.45-.696 1.259-1.687 3.064-1.687 2.237 0 3.914 1.46 3.914 4.597z"/>
    </g>
</svg>
