<svg xmlns="http://www.w3.org/2000/svg" xmlns:xlink="http://www.w3.org/1999/xlink" viewBox="0 0 460.08 99.24"><defs><style>.cls-1{fill:#fff;}.cls-2{fill:url(#radial-gradient);}</style><radialGradient id="radial-gradient" cx="19.74" cy="21.78" r="69.65" gradientUnits="userSpaceOnUse"><stop offset="0" stop-color="#48779a"/><stop offset="1" stop-color="#01faa6"/></radialGradient></defs><title>Asset 1</title><g id="Layer_2" data-name="Layer 2"><g id="Layer_1-2" data-name="Layer 1"><path class="cls-1" d="M180,29.71c11.18,0,16.92,6.27,16.92,6.27l-4,6.2a20.23,20.23,0,0,0-12.53-4.85c-9.69,0-15.37,7.23-15.37,15.76,0,8.72,5.88,16.4,15.43,16.4,7.95,0,13.31-5.81,13.31-5.81l4.39,6a24.7,24.7,0,0,1-18,7.43c-14,0-23.71-10.4-23.71-23.9C156.4,39.92,166.48,29.71,180,29.71Z"/><path class="cls-1" d="M218.41,41.14c10.07,0,18.15,7.17,18.15,17.24s-8.07,17.25-18.08,17.25-18.15-7.1-18.15-17.25S208.39,41.14,218.41,41.14Zm.07,27.52c5.29,0,9.75-4.14,9.75-10.28s-4.46-10.26-9.75-10.26-9.82,4.19-9.82,10.26S213.1,68.66,218.47,68.66Z"/><rect class="cls-1" x="241.21" y="41.91" width="8.21" height="32.94"/><path class="cls-1" d="M256.52,41.91h7.88v3.81a20,20,0,0,1-.13,2.25h.13a12.79,12.79,0,0,1,11.7-6.84c7.29,0,11.43,3.8,11.43,12.53V74.85h-8.14V55.35c0-4-1-6.72-5.23-6.72a9.08,9.08,0,0,0-8.84,6.72,13.79,13.79,0,0,0-.59,4.39V74.85h-8.2Z"/><path class="cls-1" d="M306.85,41.14c7.23,0,10,4.78,10,4.78H317a15.61,15.61,0,0,1-.13-2.13V41.91h7.75V87.77h-8.2V73.56c0-1.67.13-2.84.13-2.84h-.13s-2.78,4.91-9.88,4.91c-8.91,0-14.59-7-14.59-17.25C291.92,47.92,298.12,41.14,306.85,41.14Zm1.55,27.58c4.26,0,8.27-3.1,8.27-10.4,0-5.1-2.71-10.13-8.2-10.13-4.53,0-8.27,3.68-8.27,10.2C300.19,64.65,303.55,68.71,308.4,68.71Z"/><path class="cls-1" d="M331.27,41.91h8.2V61.42c0,4,1,6.72,5.1,6.72,5.94,0,9.24-5.23,9.24-11.11V41.91H362V74.85h-7.88V71.11a20.56,20.56,0,0,1,.13-2.33h-.13a12.69,12.69,0,0,1-11.43,6.84c-7,0-11.43-3.55-11.43-12.52Z"/><rect class="cls-1" x="369.12" y="41.91" width="8.21" height="32.94"/><path class="cls-1" d="M385.41,65a13.75,13.75,0,0,0,9,3.62c2.33,0,4.33-1,4.33-3,0-4.91-16-4.26-16-14.86,0-6.13,5.48-9.69,12.59-9.69,7.43,0,11,3.74,11,3.74l-3,6.08a12.5,12.5,0,0,0-8.07-2.84c-2.14,0-4.2.9-4.2,3,0,4.65,16,4.07,16,14.66,0,5.49-4.78,9.88-12.6,9.88a18.42,18.42,0,0,1-12.79-4.84Z"/><path class="cls-1" d="M413.12,49h-4.26V42.43h4.45v-9.5h8v9.5h7.49V49h-7.49V61.74c0,5.43,4.26,6.2,6.52,6.2a7.69,7.69,0,0,0,1.49-.13V75a13.94,13.94,0,0,1-2.53.2c-4.59,0-13.69-1.36-13.69-12.41Z"/><path class="cls-1" d="M450.84,54.18h1.1v-.45c0-4.33-2.71-5.81-6.33-5.81-4.71,0-9,3.16-9,3.16l-3.1-5.88a22.22,22.22,0,0,1,12.91-4.07c8.66,0,13.7,4.78,13.7,13.11v20.6h-7.56V72.14a20.75,20.75,0,0,1,.13-2.33h-.13c.06,0-2.51,5.81-10,5.81-5.87,0-11.17-3.68-11.17-10.27C431.33,54.89,445.48,54.18,450.84,54.18Zm-6.26,15c4.33,0,7.43-4.65,7.43-8.65V59.8h-1.43c-4.2,0-11,.58-11,5.17C439.6,67.17,441.22,69.23,444.58,69.23Z"/><path class="cls-2" d="M113.15,56.58A56.58,56.58,0,1,0,0,56.58c0,.11,0,.22,0,.33C.36,71.41,5.75,82.37,14.85,92.36a26,26,0,0,0,10.76,5.74A54.38,54.38,0,0,0,37,99.24a53.83,53.83,0,0,0,20.22-4l-.11,0,0,0h0c11.41-7,17.72-15.75,31.19-25.84a58.87,58.87,0,0,1,24-11.27l.79-.54C113.15,57.2,113.15,56.89,113.15,56.58Z"/></g></g></svg>