<svg xmlns="http://www.w3.org/2000/svg" width="44" height="44" viewBox="0 0 44 44">
    <g fill="none" fill-rule="evenodd">
        <rect width="44" height="44" fill="#02EB9F" opacity=".1" rx="4"/>
        <g stroke="#02EB9F" stroke-linecap="round" stroke-linejoin="round" stroke-width="2">
            <path d="M22.5 30.333C15.096 27.64 15.01 19.5 15.01 19.5c-.006-.458-.01-1.208-.01-1.667v-2.5c0-.458.375-.833.833-.833h.834M16.667 14.5c4.01 0 5.814-2.5 5.814-2.5M22.5 30.333C29.904 27.64 29.99 19.5 29.99 19.5c.006-.458.01-1.208.01-1.667v-2.5a.836.836 0 0 0-.833-.833h-.834M28.333 14.5c-4.01 0-5.814-2.5-5.814-2.5M22.5 21.583V18.25M22.5 24.917V24.5"/>
        </g>
    </g>
</svg>
