<svg xmlns="http://www.w3.org/2000/svg" width="90" height="90" viewBox="0 0 90 90">
    <defs>
        <radialGradient id="a" cx="32.853%" cy="17.69%" r="77.899%" fx="32.853%" fy="17.69%">
            <stop offset="0%" stop-color="#40809C"/>
            <stop offset="100%" stop-color="#00FBA4"/>
        </radialGradient>
        <linearGradient id="b" x1="86.932%" x2="50%" y1="0%" y2="100%">
            <stop offset="0%" stop-color="#454270"/>
            <stop offset="100%" stop-color="#211F3D"/>
        </linearGradient>
    </defs>
    <g fill="none" fill-rule="evenodd">
        <circle cx="45" cy="45" r="45" fill="#F5F5F8"/>
        <circle cx="18.5" cy="18.5" r="18.5" fill="url(#a)"/>
        <path fill="url(#b)" d="M30.99 36.27a.63.63 0 0 0-.374.718c-.007.041-.024.08-.024.122v10.11H17.848V37.11c0-.033-.014-.061-.02-.093 4.532-1.5 9.363-3.956 13.988-7.147 4.024-2.777 7.573-5.899 10.412-9.103A17.976 17.976 0 0 1 30.99 36.271zM17.848 51.798h12.745v-3.3H17.848v3.3zM6.164 19.527C6.164 12 10.798 5.542 17.36 2.834c4.434 1.457 9.179 3.867 13.732 7.009 4.192 2.892 7.844 6.157 10.692 9.488-2.848 3.331-6.5 6.596-10.692 9.488-4.74 3.27-9.682 5.735-14.27 7.17-6.492-2.916-10.657-9.298-10.657-16.462zM24.22 1.472c9.389 0 17.12 7.205 17.97 16.376-2.834-3.187-6.369-6.292-10.374-9.056-4.132-2.85-8.424-5.1-12.525-6.619a17.965 17.965 0 0 1 4.929-.7zM43.55 19.44c-.001-.07-.006-.141-.006-.212a35.875 35.875 0 0 0 2.6-3.638c3.156-5.1 3.794-9.503 1.795-12.4C46.064.472 42.064-.556 36.677.296a.638.638 0 0 0 .2 1.26c4.876-.773 8.431.067 10.013 2.359 1.692 2.453 1.042 6.36-1.831 11.003a33.094 33.094 0 0 1-1.641 2.374C42.306 7.682 34.122.196 24.22.196c-2.44 0-4.774.459-6.925 1.288A35.716 35.716 0 0 0 13.38.467C7.49-.675 3.148.294 1.15 3.19c-1.746 2.53-1.5 6.154.71 10.48a.639.639 0 0 0 1.136-.58C1.042 9.261.76 6.003 2.2 3.914 3.893 1.462 7.777.68 13.137 1.72c.773.15 1.565.342 2.367.562C9.213 5.474 4.888 12.003 4.888 19.527c0 7.184 3.912 13.63 10.116 16.985-.63.163-1.255.31-1.867.43C7.776 37.98 3.893 37.2 2.2 34.747c-1.548-2.245-1.116-5.784 1.217-9.962a.638.638 0 1 0-1.114-.621C-.28 28.788-.69 32.804 1.15 35.472c1.451 2.103 4.14 3.19 7.759 3.19 1.364 0 2.86-.155 4.471-.467a35.11 35.11 0 0 0 3.192-.802v9.827h-1.759a.638.638 0 0 0 0 1.277h1.76v3.3h-1.76a.638.638 0 0 0 0 1.277h1.76v2.556a.638.638 0 0 0 1.275 0v-2.556h12.744v2.556a.638.638 0 0 0 1.276 0v-2.556h1.758a.638.638 0 1 0 0-1.277h-1.758v-3.3h1.758a.638.638 0 1 0 0-1.277h-1.758v-9.946c6.527-2.812 10.91-8.872 11.582-15.863.58.779 1.129 1.557 1.609 2.332 2.873 4.643 3.523 8.55 1.83 11.004-1.547 2.242-5 3.095-9.726 2.401a.643.643 0 0 0-.724.54.639.639 0 0 0 .539.724c1.12.164 2.18.246 3.17.246 3.634-.001 6.348-1.093 7.791-3.186 1.999-2.897 1.36-7.3-1.796-12.4a36.082 36.082 0 0 0-2.593-3.632z" transform="translate(20 17)"/>
    </g>
</svg>
