<svg xmlns="http://www.w3.org/2000/svg" xmlns:xlink="http://www.w3.org/1999/xlink" width="50" height="36"><defs><linearGradient id="e" x1="50%" x2="50%" y1="0%" y2="100%"><stop offset="0%" stop-color="#FFF"/><stop offset="100%" stop-color="#F0F0F0"/></linearGradient><rect id="a" width="50" height="35.714" rx="2"/><path id="d" d="M3.571 4.762a1.19 1.19 0 1 1 0-2.381 1.19 1.19 0 0 1 0 2.38zm4.762 0a1.19 1.19 0 1 1 0-2.381 1.19 1.19 0 0 1 0 2.38zm4.762 0a1.19 1.19 0 1 1 0-2.381 1.19 1.19 0 0 1 0 2.38zm4.762 0a1.19 1.19 0 1 1 0-2.381 1.19 1.19 0 0 1 0 2.38zM5.952 7.142a1.19 1.19 0 1 1 0-2.38 1.19 1.19 0 0 1 0 2.38zm4.762 0a1.19 1.19 0 1 1 0-2.38 1.19 1.19 0 0 1 0 2.38zm4.762 0a1.19 1.19 0 1 1 0-2.38 1.19 1.19 0 0 1 0 2.38zm2.381 2.382a1.19 1.19 0 1 1 0-2.381 1.19 1.19 0 0 1 0 2.38zm-4.762 0a1.19 1.19 0 1 1 0-2.381 1.19 1.19 0 0 1 0 2.38zm-4.762 0a1.19 1.19 0 1 1 0-2.381 1.19 1.19 0 0 1 0 2.38zm-4.762 0a1.19 1.19 0 1 1 0-2.381 1.19 1.19 0 0 1 0 2.38zm2.381 2.38a1.19 1.19 0 1 1 0-2.38 1.19 1.19 0 0 1 0 2.38zm4.762 0a1.19 1.19 0 1 1 0-2.38 1.19 1.19 0 0 1 0 2.38zm4.762 0a1.19 1.19 0 1 1 0-2.38 1.19 1.19 0 0 1 0 2.38zm2.381 2.382a1.19 1.19 0 1 1 0-2.381 1.19 1.19 0 0 1 0 2.38zm-4.762 0a1.19 1.19 0 1 1 0-2.381 1.19 1.19 0 0 1 0 2.38zm-4.762 0a1.19 1.19 0 1 1 0-2.381 1.19 1.19 0 0 1 0 2.38zm-4.762 0a1.19 1.19 0 1 1 0-2.381 1.19 1.19 0 0 1 0 2.38z"/><filter id="c" width="106%" height="116.8%" x="-3%" y="-4.2%" filterUnits="objectBoundingBox"><feOffset dy="1" in="SourceAlpha" result="shadowOffsetOuter1"/><feColorMatrix in="shadowOffsetOuter1" values="0 0 0 0 0 0 0 0 0 0 0 0 0 0 0 0 0 0 0.06 0"/></filter></defs><g fill="none" fill-rule="evenodd"><mask id="b" fill="#fff"><use xlink:href="#a"/></mask><use fill="#FFF" xlink:href="#a"/><path fill="#D02F44" d="M0 0h50v2.381H0V0zm0 4.762h50v2.38H0v-2.38zm0 4.762h50v2.38H0v-2.38zm0 4.762h50v2.38H0v-2.38zm0 4.762h50v2.38H0v-2.38zm0 4.762h50v2.38H0v-2.38zm0 4.761h50v2.381H0v-2.38zm0 4.762h50v2.381H0v-2.38z" mask="url(#b)"/><path fill="#46467F" d="M0 0h21.429v16.667H0z" mask="url(#b)"/><g mask="url(#b)"><use fill="#000" filter="url(#c)" xlink:href="#d"/><use fill="url(#e)" xlink:href="#d"/></g></g></svg>